<svg width="32" height="32" viewBox="0 0 32 32" fill="none" xmlns="http://www.w3.org/2000/svg">
<path d="M0.978073 13.0502L13.5704 0.497664C13.8819 0.181851 14.2386 0.0112202 14.6033 0.00359935C14.9679 -0.00402149 15.3271 0.151647 15.6432 0.454341C15.9863 0.787191 16.2704 1.26538 16.4667 1.84035C16.6629 2.41531 16.7644 3.06657 16.7607 3.72799V12.5092L28.8096 0.494331C29.1212 0.178518 29.4779 0.0078878 29.8425 0.000266959C30.2071 -0.00735388 30.5663 0.148315 30.8825 0.451009C31.2255 0.783859 31.5096 1.26205 31.7059 1.83701C31.9021 2.41198 32.0036 3.06324 31.9999 3.72466V28.2742C32.0038 28.9359 31.9024 29.5874 31.7061 30.1626C31.5099 30.7378 31.2257 31.2161 30.8825 31.549C30.5663 31.8517 30.2071 32.0074 29.8425 31.9997C29.4779 31.9921 29.1212 31.8215 28.8096 31.5057L16.7607 19.4853V28.2698C16.765 28.9322 16.6639 29.5846 16.4676 30.1607C16.2713 30.7367 15.9869 31.2158 15.6432 31.549C15.3271 31.8517 14.9679 32.0074 14.6033 31.9997C14.2386 31.9921 13.8819 31.8215 13.5704 31.5057L0.978073 18.9532C0.678717 18.6407 0.431917 18.2067 0.260835 17.6918C0.089753 17.1769 0 16.598 0 16.0094C0 15.4209 0.089753 14.842 0.260835 14.3271C0.431917 13.8122 0.678717 13.3782 0.978073 13.0657V13.0502Z" fill="#39FF14"/>
</svg>
