<svg width="40" height="24" viewBox="0 0 40 24" fill="none" xmlns="http://www.w3.org/2000/svg">
<path d="M1.22259 9.79079L16.963 0.373369C17.3524 0.136432 17.7983 0.00841786 18.2541 0.00270038C18.7099 -0.00301709 19.1588 0.113772 19.5541 0.340866C19.9829 0.590584 20.338 0.949342 20.5833 1.38071C20.8286 1.81207 20.9554 2.30067 20.9508 2.7969V9.38492L36.012 0.370869C36.4014 0.133932 36.8473 0.00591776 37.3031 0.000200284C37.7589 -0.00551719 38.2079 0.111272 38.6031 0.338366C39.0319 0.588084 39.387 0.946842 39.6324 1.37821C39.8777 1.80957 40.0045 2.29817 39.9999 2.7944V21.2125C40.0047 21.7089 39.878 22.1977 39.6327 22.6293C39.3873 23.0608 39.0321 23.4197 38.6031 23.6694C38.2079 23.8965 37.7589 24.0133 37.3031 24.0076C36.8473 24.0019 36.4014 23.8738 36.012 23.6369L20.9508 14.6187V21.2092C20.9563 21.7062 20.8299 22.1957 20.5845 22.6278C20.3391 23.06 19.9836 23.4194 19.5541 23.6694C19.1588 23.8965 18.7099 24.0133 18.2541 24.0076C17.7983 24.0019 17.3524 23.8738 16.963 23.6369L1.22259 14.2195C0.848396 13.9851 0.539896 13.6594 0.326044 13.2731C0.112191 12.8868 0 12.4525 0 12.011C0 11.5694 0.112191 11.1351 0.326044 10.7488C0.539896 10.3625 0.848396 10.0369 1.22259 9.80246V9.79079Z" fill="#39FF14"/>
</svg>
